ModelForces
version=1
nRows=4
nColumns=206
inDegrees=no

This file contains the forces exerted on a model during a simulation.

A force is a generalized force, meaning that it can be either a force (N) or a torque (Nm).

Units are S.I. units (second, meters, Newtons, ...)
Angles are in degrees.

endheader
time	glut_med1_r	glut_med2_r	glut_med3_r	glut_min1_r	glut_min2_r	glut_min3_r	semimem_r	semiten_r	bifemlh_r	bifemsh_r	sar_r	add_long_r	add_brev_r	add_mag1_r	add_mag2_r	add_mag3_r	tfl_r	pect_r	grac_r	glut_max1_r	glut_max2_r	glut_max3_r	iliacus_r	psoas_r	quad_fem_r	gem_r	peri_r	rect_fem_r	vas_med_r	vas_int_r	vas_lat_r	med_gas_r	lat_gas_r	soleus_r	tib_post_r	flex_dig_r	flex_hal_r	tib_ant_r	per_brev_r	per_long_r	per_tert_r	ext_dig_r	ext_hal_r	glut_med1_l	glut_med2_l	glut_med3_l	glut_min1_l	glut_min2_l	glut_min3_l	semimem_l	semiten_l	bifemlh_l	bifemsh_l	sar_l	add_long_l	add_brev_l	add_mag1_l	add_mag2_l	add_mag3_l	tfl_l	pect_l	grac_l	glut_max1_l	glut_max2_l	glut_max3_l	iliacus_l	psoas_l	quad_fem_l	gem_l	peri_l	rect_fem_l	vas_med_l	vas_int_l	vas_lat_l	med_gas_l	lat_gas_l	soleus_l	tib_post_l	flex_dig_l	flex_hal_l	tib_ant_l	per_brev_l	per_long_l	per_tert_l	ext_dig_l	ext_hal_l	ercspn_r	ercspn_l	intobl_r	intobl_l	extobl_r	extobl_l	femur_lat_meniscii_l.femur_lat_l.force.X	femur_lat_meniscii_l.femur_lat_l.force.Y	femur_lat_meniscii_l.femur_lat_l.force.Z	femur_lat_meniscii_l.femur_lat_l.torque.X	femur_lat_meniscii_l.femur_lat_l.torque.Y	femur_lat_meniscii_l.femur_lat_l.torque.Z	femur_lat_meniscii_l.meniscus_lat_l.force.X	femur_lat_meniscii_l.meniscus_lat_l.force.Y	femur_lat_meniscii_l.meniscus_lat_l.force.Z	femur_lat_meniscii_l.meniscus_lat_l.torque.X	femur_lat_meniscii_l.meniscus_lat_l.torque.Y	femur_lat_meniscii_l.meniscus_lat_l.torque.Z	femur_med_meniscii_l.femur_med_l.force.X	femur_med_meniscii_l.femur_med_l.force.Y	femur_med_meniscii_l.femur_med_l.force.Z	femur_med_meniscii_l.femur_med_l.torque.X	femur_med_meniscii_l.femur_med_l.torque.Y	femur_med_meniscii_l.femur_med_l.torque.Z	femur_med_meniscii_l.meniscus_med_l.force.X	femur_med_meniscii_l.meniscus_med_l.force.Y	femur_med_meniscii_l.meniscus_med_l.force.Z	femur_med_meniscii_l.meniscus_med_l.torque.X	femur_med_meniscii_l.meniscus_med_l.torque.Y	femur_med_meniscii_l.meniscus_med_l.torque.Z	femur_lat_meniscii_r.femur_lat_r.force.X	femur_lat_meniscii_r.femur_lat_r.force.Y	femur_lat_meniscii_r.femur_lat_r.force.Z	femur_lat_meniscii_r.femur_lat_r.torque.X	femur_lat_meniscii_r.femur_lat_r.torque.Y	femur_lat_meniscii_r.femur_lat_r.torque.Z	femur_lat_meniscii_r.meniscus_lat_r.force.X	femur_lat_meniscii_r.meniscus_lat_r.force.Y	femur_lat_meniscii_r.meniscus_lat_r.force.Z	femur_lat_meniscii_r.meniscus_lat_r.torque.X	femur_lat_meniscii_r.meniscus_lat_r.torque.Y	femur_lat_meniscii_r.meniscus_lat_r.torque.Z	femur_med_meniscii_r.femur_med_r.force.X	femur_med_meniscii_r.femur_med_r.force.Y	femur_med_meniscii_r.femur_med_r.force.Z	femur_med_meniscii_r.femur_med_r.torque.X	femur_med_meniscii_r.femur_med_r.torque.Y	femur_med_meniscii_r.femur_med_r.torque.Z	femur_med_meniscii_r.meniscus_med_r.force.X	femur_med_meniscii_r.meniscus_med_r.force.Y	femur_med_meniscii_r.meniscus_med_r.force.Z	femur_med_meniscii_r.meniscus_med_r.torque.X	femur_med_meniscii_r.meniscus_med_r.torque.Y	femur_med_meniscii_r.meniscus_med_r.torque.Z	femur_med_tibia_l.tibia_upper_l.force.X	femur_med_tibia_l.tibia_upper_l.force.Y	femur_med_tibia_l.tibia_upper_l.force.Z	femur_med_tibia_l.tibia_upper_l.torque.X	femur_med_tibia_l.tibia_upper_l.torque.Y	femur_med_tibia_l.tibia_upper_l.torque.Z	femur_med_tibia_l.femur_med_l.force.X	femur_med_tibia_l.femur_med_l.force.Y	femur_med_tibia_l.femur_med_l.force.Z	femur_med_tibia_l.femur_med_l.torque.X	femur_med_tibia_l.femur_med_l.torque.Y	femur_med_tibia_l.femur_med_l.torque.Z	femur_lat_tibia_l.tibia_upper_l.force.X	femur_lat_tibia_l.tibia_upper_l.force.Y	femur_lat_tibia_l.tibia_upper_l.force.Z	femur_lat_tibia_l.tibia_upper_l.torque.X	femur_lat_tibia_l.tibia_upper_l.torque.Y	femur_lat_tibia_l.tibia_upper_l.torque.Z	femur_lat_tibia_l.femur_lat_l.force.X	femur_lat_tibia_l.femur_lat_l.force.Y	femur_lat_tibia_l.femur_lat_l.force.Z	femur_lat_tibia_l.femur_lat_l.torque.X	femur_lat_tibia_l.femur_lat_l.torque.Y	femur_lat_tibia_l.femur_lat_l.torque.Z	femur_med_tibia_r.tibia_upper_r.force.X	femur_med_tibia_r.tibia_upper_r.force.Y	femur_med_tibia_r.tibia_upper_r.force.Z	femur_med_tibia_r.tibia_upper_r.torque.X	femur_med_tibia_r.tibia_upper_r.torque.Y	femur_med_tibia_r.tibia_upper_r.torque.Z	femur_med_tibia_r.femur_med_r.force.X	femur_med_tibia_r.femur_med_r.force.Y	femur_med_tibia_r.femur_med_r.force.Z	femur_med_tibia_r.femur_med_r.torque.X	femur_med_tibia_r.femur_med_r.torque.Y	femur_med_tibia_r.femur_med_r.torque.Z	femur_lat_tibia_r.tibia_upper_r.force.X	femur_lat_tibia_r.tibia_upper_r.force.Y	femur_lat_tibia_r.tibia_upper_r.force.Z	femur_lat_tibia_r.tibia_upper_r.torque.X	femur_lat_tibia_r.tibia_upper_r.torque.Y	femur_lat_tibia_r.tibia_upper_r.torque.Z	femur_lat_tibia_r.femur_lat_r.force.X	femur_lat_tibia_r.femur_lat_r.force.Y	femur_lat_tibia_r.femur_lat_r.force.Z	femur_lat_tibia_r.femur_lat_r.torque.X	femur_lat_tibia_r.femur_lat_r.torque.Y	femur_lat_tibia_r.femur_lat_r.torque.Z	aACL_R	pACL_R	aPCL_R	pPCL_R	aMCL_R	mMCL_R	pMCL_R	aLCL_R	mLCL_R	pLCL_R	aPCL_L	pPCL_L	aMCL_L	aLCL_L	ground_prescribedForce_-90_fx	ground_prescribedForce_-90_fy	ground_prescribedForce_-90_fz
      0.11865304	     14.78765628	     10.59474229	     11.42643560	      4.84576502	      5.56847107	      6.24606119	      0.00000000	      6.74843459	      8.01195812	     10.58299585	      2.86640427	     10.57229611	      7.50513695	      5.44140492	      4.64076242	      7.94610867	      5.33239890	      4.09703055	      2.72662242	      6.84954833	     10.42466567	      7.86048511	     31.71618676	     23.28283036	      6.69604106	      4.34581831	      9.08615733	    242.77634077	     55.62296016	     95.54553338	     79.86290259	      0.00000000	      0.75329365	     13.80702389	     13.31408702	      8.17445794	      8.96418875	     23.60017612	     12.32783409	     27.72718751	      7.39891187	      7.67677224	      1.39342306	     14.78765628	     10.59474229	     11.42643560	      4.84576502	      5.56847107	      6.24606119	     18.69366933	      7.95906922	     16.14851442	     13.33165872	      2.76195221	     10.57229611	      7.50513695	      5.44140492	      4.64076242	      7.94610867	      6.55295396	      4.09703055	      2.86249303	      6.84954833	     10.42466567	      7.86048511	     31.71618676	     23.28283036	      6.69604106	      4.34581831	      9.08615733	     22.26826997	     12.54769324	     14.54745502	     15.62757921	     32.39758280	     15.06658313	     69.18386953	     58.62648998	      6.89094466	      6.83745987	     17.31815326	      9.35721562	     23.27307278	      3.59683587	     11.73767139	      3.67858696	     45.63459036	     45.63459036	     17.25355616	     17.25355616	     34.28550946	     34.28550946	      2.76307435	     50.99597937	     -9.56042239	      5.21997485	     -0.02578839	      1.48581788	     -2.76307435	    -50.99597937	      9.56042239	     -1.74637766	      0.02558040	     -0.48301696	     -3.31599387	     20.97615968	     -3.40468921	      0.94473225	     -0.02138609	     -1.00501789	      3.31599387	    -20.97615968	      3.40468921	      0.28075727	      0.00368718	     -0.29758878	    190.60240553	    -25.97874557	     29.85413347	    -11.43329304	      4.61065522	     77.54594603	   -190.60240553	     25.97874557	    -29.85413347	     -0.59735664	     -6.01463247	     -1.95851681	     58.50841677	    -49.49439363	     -9.66786964	      2.99112023	     -1.09731332	     23.62252669	    -58.50841677	     49.49439363	      9.66786964	      0.73862410	      1.20684348	     -1.61144101	      0.00000000	      0.00000000	      0.00000000	      0.00000000	      0.00000000	      0.00000000	      0.00000000	      0.00000000	      0.00000000	      0.00000000	      0.00000000	      0.00000000	      0.00000000	      0.00000000	      0.00000000	      0.00000000	      0.00000000	      0.00000000	      0.00000000	      0.00000000	      0.00000000	      0.00000000	      0.00000000	      0.00000000	   -665.64308120	     53.62543106	    145.69950059	      0.03923043	     13.91261948	     -4.89761140	    665.64308120	    -53.62543106	   -145.69950059	     58.15703098	    -11.64160719	    269.93733075	    -12.57370140	     -0.90453066	     -3.56968375	      0.04789572	     -0.44802955	     -0.05509598	     12.57370140	      0.90453066	      3.56968375	     -1.47489742	      0.30948227	      5.11661258	     18.15954659	      4.66800237	    851.92377041	    432.74649382	     10.65844243	      0.00000000	      0.00000000	      0.00000000	      0.00000000	      0.00000000	      0.00000000	      0.00000000	      0.00000001	      0.00000000	      0.00000000	   -110.00000000	      0.00000000
      0.12062644	     14.59837106	     10.46635758	     11.28646652	      4.78926675	      5.50628053	      6.16624797	      0.00000000	      6.64896118	      7.90302608	     10.42865067	      2.82990091	     10.44284137	      7.41842455	      5.37562891	      4.58349131	      7.84276399	      5.23827569	      4.04891442	      2.68977103	      6.76601587	     10.29733518	      7.76327072	     31.47699939	     23.01033647	      6.61636135	      4.30616813	      8.96310243	    242.81781869	     55.30656086	     95.38135296	     79.54266650	      0.00000000	      0.73512431	     13.60579697	     12.98020514	      8.07800967	      8.87095665	     23.38499767	     12.15081633	     27.37115337	      7.37740710	      7.41070887	      1.36264906	     14.59837106	     10.46635758	     11.28646652	      4.78926675	      5.50628053	      6.16624797	     18.44281076	      7.85769522	     15.93235413	     13.17279285	      2.72989583	     10.44284137	      7.41842455	      5.37562891	      4.58349131	      7.84276399	      6.48870166	      4.04891442	      2.82871003	      6.76601587	     10.29733518	      7.76327072	     31.47699939	     23.01033647	      6.61636135	      4.30616813	      8.96310243	     21.97088970	     12.39092097	     14.36347563	     15.42951452	     31.96084235	     14.86282336	     68.24397572	     58.20593742	      6.78744293	      6.73722965	     17.08894535	      9.23021116	     23.00128398	      3.55488764	     11.57934702	      3.62897452	     45.10139548	     45.10139548	     17.03774474	     17.03774474	     34.08752721	     34.08752721	      2.76307435	     50.99597937	     -9.56042239	      5.21997485	     -0.02578839	      1.48581788	     -2.76307435	    -50.99597937	      9.56042239	     -1.74637766	      0.02558040	     -0.48301696	     -3.31599387	     20.97615968	     -3.40468921	      0.94473225	     -0.02138609	     -1.00501789	      3.31599387	    -20.97615968	      3.40468921	      0.28075727	      0.00368718	     -0.29758878	    191.85597431	    -25.07369577	     29.85226934	    -11.45929862	      4.63441952	     78.04719821	   -191.85597431	     25.07369577	    -29.85226934	     -0.56929525	     -6.04643364	     -1.92725040	     58.97682071	    -49.82587344	    -10.21652149	      3.20358849	     -1.10958615	     23.81151827	    -58.97682071	     49.82587344	     10.21652149	      0.74401528	      1.23216264	     -1.62102617	      0.00000000	      0.00000000	      0.00000000	      0.00000000	      0.00000000	      0.00000000	      0.00000000	      0.00000000	      0.00000000	      0.00000000	      0.00000000	      0.00000000	      0.00000000	      0.00000000	      0.00000000	      0.00000000	      0.00000000	      0.00000000	      0.00000000	      0.00000000	      0.00000000	      0.00000000	      0.00000000	      0.00000000	   -659.33519587	     53.03566314	    147.11304687	      0.02972895	     13.87527605	     -4.83000718	    659.33519587	    -53.03566314	   -147.11304687	     58.73657795	    -11.56070474	    267.37599118	    -13.89690677	     -1.00753350	     -3.87116824	      0.05253191	     -0.49232839	     -0.06034476	     13.89690677	      1.00753350	      3.87116824	     -1.60004564	      0.34100231	      5.65506935	     18.52380475	      4.89528118	    849.97415001	    430.97546483	     10.79541379	      0.00000000	      0.00000000	      0.00000000	      0.00000000	      0.00000000	      0.00000000	      0.00000000	      0.00000001	      0.00000000	      0.00000000	   -110.00000000	      0.00000000
      0.12259985	     14.41414458	     10.34140452	     11.15024818	      4.73426354	      5.44575296	      6.08856859	      0.00000000	      6.55352815	      7.79675306	     10.28326052	      2.79647331	     10.31685525	      7.33399879	      5.31161500	      4.52776125	      7.74216804	      5.14661456	      4.00207564	      2.65438709	      6.68473111	     10.17342887	      7.66867041	     31.24433627	     22.74523160	      6.53880346	      4.26760483	      8.84312334	    242.89696925	     55.03517761	     95.28961547	     79.28983562	      0.00000000	      0.71747659	     13.41163581	     12.67389102	      7.98225058	      8.77790660	     23.17472414	     11.96945098	     27.00647047	      7.36622125	      7.16868502	      1.33675105	     14.41414458	     10.34140452	     11.15024818	      4.73426354	      5.44575296	      6.08856859	     18.19830934	      7.75903523	     15.72177614	     13.01816208	      2.69868631	     10.31685525	      7.33399879	      5.31161500	      4.52776125	      7.74216804	      6.42616071	      4.00207564	      2.79582452	      6.68473111	     10.17342887	      7.66867041	     31.24433627	     22.74523160	      6.53880346	      4.26760483	      8.84312334	     21.68123317	     12.23839869	     14.18447527	     15.23683822	     31.53469752	     14.66402628	     67.32760507	     57.79655679	      6.68655991	      6.63961907	     16.86575532	      9.10646771	     22.73664322	      3.51407683	     11.42501016	      3.58062975	     44.58231924	     44.58231924	     16.82771899	     16.82771899	     33.89498295	     33.89498295	      2.76307435	     50.99597937	     -9.56042239	      5.21997485	     -0.02578839	      1.48581788	     -2.76307435	    -50.99597937	      9.56042239	     -1.74637766	      0.02558040	     -0.48301696	     -3.31599387	     20.97615968	     -3.40468921	      0.94473225	     -0.02138609	     -1.00501789	      3.31599387	    -20.97615968	      3.40468921	      0.28075727	      0.00368718	     -0.29758878	    193.66458706	    -24.63047514	     31.56677213	    -12.16293556	      4.69884491	     78.78191892	   -193.66458706	     24.63047514	    -31.56677213	     -0.55241576	     -6.17036110	     -1.92042956	     59.41150398	    -50.15328478	     -9.76728843	      3.02050924	     -1.11261627	     23.98701878	    -59.41150398	     50.15328478	      9.76728843	      0.74515572	      1.21951915	     -1.63052859	      0.00000000	      0.00000000	      0.00000000	      0.00000000	      0.00000000	      0.00000000	      0.00000000	      0.00000000	      0.00000000	      0.00000000	      0.00000000	      0.00000000	      0.00000000	      0.00000000	      0.00000000	      0.00000000	      0.00000000	      0.00000000	      0.00000000	      0.00000000	      0.00000000	      0.00000000	      0.00000000	      0.00000000	   -654.77321656	     51.55138561	    142.01537684	      0.03417962	     13.59239107	     -4.73561862	    654.77321656	    -51.55138561	   -142.01537684	     56.69673453	    -11.42765152	    265.51222347	    -15.33851202	     -1.13927482	     -4.34914267	      0.05914030	     -0.54684605	     -0.06524406	     15.33851202	      1.13927482	      4.34914267	     -1.79777632	      0.37722585	      6.24148056	     18.39118702	      4.51899044	    848.05435315	    429.50952249	     10.97753965	      0.00000000	      0.00000000	      0.00000000	      0.00000000	      0.00000000	      0.00000000	      0.00000000	      0.00000001	      0.00000000	      0.00000000	   -110.00000000	      0.00000000
      0.12412687	     14.27497297	     10.24700996	     11.04734977	      4.69270168	      5.40002833	      6.02988713	      0.00000000	      6.48056588	      7.71667368	     10.16912385	      2.76880234	     10.22168595	      7.27019871	      5.26325893	      4.48566741	      7.66616559	      5.07582406	      3.96668582	      2.62726218	      6.62333527	     10.07983889	      7.59721608	     31.06865992	     22.54503242	      6.48020773	      4.23849074	      8.75234535	    242.92814428	     54.80080900	     95.15639868	     79.04165817	      0.00000000	      0.70455734	     13.26591502	     12.46027807	      7.91005050	      8.70752648	     23.02174266	     11.81870833	     26.71105468	      7.34651119	      6.99653746	      1.31991286	     14.27497297	     10.24700996	     11.04734977	      4.69270168	      5.40002833	      6.02988713	     18.01337514	      7.68450677	     15.56256922	     12.90134006	      2.67510259	     10.22168595	      7.27019871	      5.26325893	      4.48566741	      7.66616559	      6.37891192	      3.96668582	      2.77097777	      6.62333527	     10.07983889	      7.59721608	     31.06865992	     22.54503242	      6.48020773	      4.23849074	      8.75234535	     21.46226800	     12.12321724	     14.04929290	     15.09134644	     31.21205592	     14.51352632	     66.63428591	     57.48725754	      6.61024168	      6.56583258	     16.69707819	      9.01289895	     22.53664157	      3.48325758	     11.30825949	      3.54407036	     44.19009795	     44.19009795	     16.66906903	     16.66906903	     33.74962368	     33.74962368	      2.76307435	     50.99597937	     -9.56042239	      5.21997485	     -0.02578839	      1.48581788	     -2.76307435	    -50.99597937	      9.56042239	     -1.74637766	      0.02558040	     -0.48301696	     -3.31599387	     20.97615968	     -3.40468921	      0.94473225	     -0.02138609	     -1.00501789	      3.31599387	    -20.97615968	      3.40468921	      0.28075727	      0.00368718	     -0.29758878	    195.26778148	    -24.59569580	     30.04301606	    -11.54581509	      4.71699117	     79.43604867	   -195.26778148	     24.59569580	    -30.04301606	     -0.56011970	     -6.15322615	     -1.92805730	     59.59789583	    -50.35327868	    -10.48093004	      3.30077388	     -1.12183951	     24.06286495	    -59.59789583	     50.35327868	     10.48093004	      0.74936125	      1.24755543	     -1.63648465	      0.00000000	      0.00000000	      0.00000000	      0.00000000	      0.00000000	      0.00000000	      0.00000000	      0.00000000	      0.00000000	      0.00000000	      0.00000000	      0.00000000	      0.00000000	      0.00000000	      0.00000000	      0.00000000	      0.00000000	      0.00000000	      0.00000000	      0.00000000	      0.00000000	      0.00000000	      0.00000000	      0.00000000	   -649.30450465	     51.17060438	    145.28618565	      0.01887813	     13.64374785	     -4.68471383	    649.30450465	    -51.17060438	   -145.28618565	     58.02476114	    -11.38139647	    263.29313130	    -16.70374632	     -1.26366770	     -4.60930899	      0.06400744	     -0.59050153	     -0.06994457	     16.70374632	      1.26366770	      4.60930899	     -1.90654097	      0.40910193	      6.79686212	     18.85927179	      4.92811543	    846.52336826	    428.12215811	     11.11835058	      0.00000000	      0.00000000	      0.00000000	      0.00000000	      0.00000000	      0.00000000	      0.00000000	      0.00000001	      0.00000000	      0.00000000	   -110.00000000	      0.00000000
